<?xml version="1.0" encoding="UTF-8" standalone="no"?>
<svg
   xmlns:dc="http://purl.org/dc/elements/1.1/"
   xmlns:cc="http://creativecommons.org/ns#"
   xmlns:rdf="http://www.w3.org/1999/02/22-rdf-syntax-ns#"
   xmlns:svg="http://www.w3.org/2000/svg"
   xmlns="http://www.w3.org/2000/svg"
   xmlns:sodipodi="http://sodipodi.sourceforge.net/DTD/sodipodi-0.dtd"
   xmlns:inkscape="http://www.inkscape.org/namespaces/inkscape"
   height="485pt"
   viewBox="0 -90 485.41089 485"
   width="485pt"
   version="1.1"
   id="svg56"
   sodipodi:docname="_D.svg"
   inkscape:export-filename="D:\vigneonline\src\assets\_D.png"
   inkscape:export-xdpi="13.360825"
   inkscape:export-ydpi="13.360825"
   inkscape:version="0.92.1 r15371">
  <metadata
     id="metadata62">
    <rdf:RDF>
      <cc:Work
         rdf:about="">
        <dc:format>image/svg+xml</dc:format>
        <dc:type
           rdf:resource="http://purl.org/dc/dcmitype/StillImage" />
        <dc:title></dc:title>
      </cc:Work>
    </rdf:RDF>
  </metadata>
  <defs
     id="defs60" />
  <sodipodi:namedview
     pagecolor="#ffffff"
     bordercolor="#666666"
     borderopacity="1"
     objecttolerance="10"
     gridtolerance="10"
     guidetolerance="10"
     inkscape:pageopacity="0"
     inkscape:pageshadow="2"
     inkscape:window-width="980"
     inkscape:window-height="991"
     id="namedview58"
     showgrid="false"
     inkscape:zoom="0.25805753"
     inkscape:cx="-139.6208"
     inkscape:cy="502.88773"
     inkscape:window-x="932"
     inkscape:window-y="0"
     inkscape:window-maximized="0"
     inkscape:current-layer="svg56" />
  <path
     d="m 426.69141,172.48801 v 125.28125 c 0,4.41797 -3.58204,8 -8,8 h -72 v -51.67969 l 3.91796,2.87891 c 3.08594,2.24609 6.9375,3.17188 10.70704,2.57031 3.76562,-0.60156 7.14062,-2.67578 9.375,-5.76953 v 20 h 32 v -32 h -29.76172 c -0.87891,-3.23828 -2.85938,-6.0664 -5.59766,-8 l -93.83984,-66.23828 73.19922,-53.76168 z m 0,0"
     id="path2"
     inkscape:connector-curvature="0"
     style="fill:#5aaae7" />
  <path
     d="m 211.89062,167.53098 -93.83984,66.23828 c -2.74219,1.9336 -4.72265,4.76172 -5.60156,8 H 90.691406 v 64 h -24 c -4.417968,0 -8,-3.58203 -8,-8 V 172.48801 L 138.69141,113.7693 Z m 0,0"
     id="path4"
     inkscape:connector-curvature="0"
     style="fill:#00ccb3" />
  <path
     d="m 146.69141,119.60914 -72.000004,52.87887 -16,11.76172 V 172.48801 L 138.69141,113.7693 Z m 0,0"
     id="path6"
     inkscape:connector-curvature="0"
     style="fill:#00b39d" />
  <path
     d="m 162.69141,185.76926 c 0,13.25391 -10.7461,24 -24,24 -13.25782,0 -24,-10.74609 -24,-24 0,-13.2539 10.74218,-23.99999 24,-23.99999 13.2539,0 24,10.74609 24,23.99999 z m 0,0"
     id="path8"
     inkscape:connector-curvature="0"
     style="fill:#ffd422" />
  <path
     d="m 114.37109,253.37082 c 2.71485,3.95313 7.20313,6.31641 12,6.32032 3.01563,-0.008 5.95313,-0.95703 8.39844,-2.72266 l 3.92188,-2.87891 v 51.67969 H 90.691406 v -64 h 21.757814 c -1.00781,3.96485 -0.3125,8.17188 1.92187,11.60156 z m 0,0"
     id="path10"
     inkscape:connector-curvature="0"
     style="fill:#8b5e3c" />
  <path
     d="m 236.05078,150.48803 -24.16016,17.04295 -73.19921,-53.76168 -80.000004,58.71871 -27.921875,20.48047 c -2.445312,1.76563 -5.382812,2.71484 -8.398437,2.72266 -4.796875,-0.004 -9.285156,-2.36719 -12,-6.32032 -4.253906,-6.45703 -2.628906,-15.125 3.679687,-19.60156 L 138.69141,81.769309 Z m 0,0"
     id="path12"
     inkscape:connector-curvature="0"
     style="fill:#3d9ae2" />
  <path
     d="m 90.691406,241.76926 h 16.000004 v 64 H 90.691406 Z m 0,0"
     id="path14"
     inkscape:connector-curvature="0"
     style="fill:#754c29" />
  <path
     d="m 90.691406,241.76926 h 48.000004 v 8 H 90.691406 Z m 0,0"
     id="path16"
     inkscape:connector-curvature="0"
     style="fill:#754c29" />
  <path
     d="m 322.69141,236.48801 24,17.60156 v 51.67969 h -24 z m 0,0"
     id="path18"
     inkscape:connector-curvature="0"
     style="fill:#8b5e3c" />
  <path
     d="m 402.69141,241.76926 v 32 h -32 v -20 c 0.14453,-0.0937 0.25781,-0.23437 0.32031,-0.39844 2.27344,-3.41406 2.97265,-7.63671 1.91797,-11.60156 z m 0,0"
     id="path20"
     inkscape:connector-curvature="0"
     style="fill:#e6e7e8" />
  <path
     d="m 370.69141,185.76926 c 0,13.25391 -10.7461,24 -24,24 -13.25782,0 -24,-10.74609 -24,-24 0,-13.2539 10.74218,-23.99999 24,-23.99999 13.2539,0 24,10.74609 24,23.99999 z m 0,0"
     id="path22"
     inkscape:connector-curvature="0"
     style="fill:#ffd422" />
  <path
     d="m 477.41016,181.44895 c -0.008,5.39453 -3.04688,10.32812 -7.86329,12.76172 -4.8125,2.43359 -10.58984,1.95312 -14.9375,-1.24219 l -27.91796,-20.48047 -80,-58.71871 -73.19922,53.76168 -24.16016,-17.04295 97.35938,-68.718721 124.64062,87.999951 c 3.78906,2.6836 6.05469,7.03516 6.07813,11.67969 z m 0,0"
     id="path24"
     inkscape:connector-curvature="0"
     style="fill:#009986" />
  <path
     d="m 354.69141,119.60914 -72,52.87887 -16,11.76172 v -11.76172 l 80,-58.71871 z m 0,0"
     id="path26"
     inkscape:connector-curvature="0"
     style="fill:#3d9ae2" />
  <path
     d="m 370.69141,241.76926 h 16 v 32 h -16 z m 0,0"
     id="path28"
     inkscape:connector-curvature="0"
     style="fill:#d1d3d4" />
  <path
     d="m 162.69141,236.48801 v 69.28125 h -24 v -51.67969 z m 0,0"
     id="path30"
     inkscape:connector-curvature="0"
     style="fill:#00ccb3" />
  <path
     d="m 322.69141,236.48801 v 125.28125 c 0,4.41797 -3.58204,8 -8,8 h -144 c -4.41797,0 -8,-3.58203 -8,-8 V 236.48801 l 80,-58.71875 z m 0,0"
     id="path32"
     inkscape:connector-curvature="0"
     style="fill:#ffc477" />
  <path
     d="m 346.69141,254.08957 -24,-17.60156 -80,-58.71875 -80,58.71875 -24,17.60156 -3.92188,2.87891 c -2.44531,1.76563 -5.38281,2.71484 -8.39844,2.72266 -4.45703,0.0508 -8.67578,-1.98828 -11.41015,-5.50391 -2.73438,-3.51953 -3.66407,-8.11328 -2.51172,-12.41797 0.8789,-3.23828 2.85937,-6.0664 5.60156,-8 l 93.83984,-66.23828 24.16016,-17.04295 6.64063,-4.71875 6.64062,4.71875 24.16016,17.04295 93.83984,66.23828 c 2.73828,1.9336 4.71875,4.76172 5.59766,8 1.05469,3.96485 0.35547,8.1875 -1.91797,11.60156 -0.0625,0.16407 -0.17578,0.30469 -0.32031,0.39844 -2.23438,3.09375 -5.60938,5.16797 -9.375,5.76953 -3.76953,0.60157 -7.6211,-0.32422 -10.70704,-2.57031 z m 0,0"
     id="path34"
     inkscape:connector-curvature="0"
     style="fill:#ff6243" />
  <path
     d="m 250.69141,183.60911 -72,52.8789 -16,11.76172 v -11.76172 l 80,-58.71875 z m 0,0"
     id="path36"
     inkscape:connector-curvature="0"
     style="fill:#ffb655" />
  <path
     d="m 266.69141,305.76926 h 32 v 32 h -32 z m 0,0"
     id="path38"
     inkscape:connector-curvature="0"
     style="fill:#e6e7e8" />
  <path
     d="m 266.69141,249.76926 c 0,13.25391 -10.7461,24 -24,24 -13.25782,0 -24,-10.74609 -24,-24 0,-13.2539 10.74218,-24 24,-24 13.2539,0 24,10.7461 24,24 z m 0,0"
     id="path40"
     inkscape:connector-curvature="0"
     style="fill:#ffd422" />
  <path
     d="m 194.69141,305.76926 h 48 v 64 h -48 z m 0,0"
     id="path42"
     inkscape:connector-curvature="0"
     style="fill:#8b5e3c" />
  <path
     d="m 194.69141,305.76926 h 16 v 64 h -16 z m 0,0"
     id="path44"
     inkscape:connector-curvature="0"
     style="fill:#754c29" />
  <path
     d="m 194.69141,305.76926 h 48 v 8 h -48 z m 0,0"
     id="path46"
     inkscape:connector-curvature="0"
     style="fill:#754c29" />
  <path
     d="m 266.69141,305.76926 h 16 v 32 h -16 z m 0,0"
     id="path48"
     inkscape:connector-curvature="0"
     style="fill:#d1d3d4" />
  <path
     d="m 298.69141,297.76926 h -32 c -4.41797,0 -8,3.58203 -8,8 v 32 c 0,4.41797 3.58203,8 8,8 h 32 c 4.41796,0 8,-3.58203 8,-8 v -32 c 0,-4.41797 -3.58204,-8 -8,-8 z m -8,32 h -16 v -16 h 16 z m 0,0"
     id="path50"
     inkscape:connector-curvature="0" />
  <path
     d="m 274.69141,249.76926 c 0,-17.67187 -14.32813,-32 -32,-32 -17.67579,0 -32,14.32813 -32,32 0,17.67188 14.32421,32 32,32 17.67187,0 32,-14.32812 32,-32 z m -32,16 c -8.83594,0 -16,-7.16406 -16,-16 0,-8.83594 7.16406,-16 16,-16 8.83593,0 16,7.16406 16,16 0,8.83594 -7.16407,16 -16,16 z m 0,0"
     id="path52"
     inkscape:connector-curvature="0" />
  <path
     d="M 475.94531,163.23411 351.30469,75.234152 c -2.76563,-1.957031 -6.46485,-1.957031 -9.23047,0 l -92.71875,65.441378 -2.05078,-1.4414 c -2.76563,-1.95703 -6.46485,-1.95703 -9.23047,0 l -2.04688,1.4414 -92.72265,-65.441378 c -2.76563,-1.957031 -6.46485,-1.957031 -9.23047,0 L 9.425781,163.23411 c -9.882812,7 -12.386719,20.60156 -5.648437,30.66406 3.425781,5.0039 8.726562,8.41406 14.699218,9.45312 5.976563,1.03907 12.117188,-0.3789 17.03125,-3.93359 l 15.183594,-11.13672 v 109.48828 c 0,8.83594 7.164063,16 16,16 h 88.000004 v 48 c 0,8.83594 7.16406,16 16,16 h 144 c 8.83593,0 16,-7.16406 16,-16 v -48 h 88 c 8.83593,0 16,-7.16406 16,-16 V 188.28098 l 15.19921,11.15234 c 3.79297,2.78907 8.375,4.28907 13.07813,4.28907 7.53516,0.004 14.57422,-3.75391 18.76172,-10.01563 6.63281,-10.05078 4.07031,-23.55078 -5.78516,-30.47265 z m -113.2539,77.03906 c 2.07812,1.45703 3.07812,4.02344 2.52734,6.5039 -0.55078,2.48047 -2.53906,4.38282 -5.03906,4.82422 -1.6875,0.28125 -3.41406,-0.12109 -4.80078,-1.12109 L 247.42578,171.28098 c -2.8125,-2.0625 -6.64062,-2.0625 -9.45703,0 L 130.01953,250.4802 c -1.38672,1 -3.11719,1.40234 -4.80078,1.12109 -2.5,-0.4375 -4.48828,-2.33984 -5.04297,-4.8164 -0.55078,-2.47657 0.44141,-5.04297 2.51563,-6.50391 l 120,-84.71874 z m -32,-54.50391 c 0,-8.83594 7.16406,-16 16,-16 8.83593,0 16,7.16406 16,16 0,8.83594 -7.16407,16 -16,16 -8.83594,0 -16,-7.16406 -16,-16 z m 64,64 v 16 h -16 v -9.97656 c 1.05078,-1.88672 1.8164,-3.91406 2.27734,-6.02344 z m -256,-48 c -8.83594,0 -16,-7.16406 -16,-16 0,-8.83594 7.16406,-16 16,-16 8.83593,0 16,7.16406 16,16 0,8.83594 -7.16407,16 -16,16 z M 26.105469,186.47239 c -1.085938,0.78906 -2.394531,1.21484 -3.734375,1.21875 -2.097656,-0.004 -4.0625,-1.01563 -5.28125,-2.72266 -1.886719,-2.84766 -1.179688,-6.67578 1.601562,-8.66406 L 138.69141,91.562279 222.15234,150.4724 211.96875,157.67552 143.42578,107.3279 c -2.8164,-2.06641 -6.65234,-2.06641 -9.47265,0 z m 40.585937,-9.9336 72.000004,-52.84762 59.49609,43.67966 -27.60937,19.49609 c 0,-0.37891 0.11328,-0.73828 0.11328,-1.11328 0.0625,-16.4336 -12.32813,-30.24218 -28.67188,-31.95312 -16.34375,-1.70703 -31.32812,9.23828 -34.66406,25.33202 -3.33594,16.08985 6.05859,32.08985 21.73437,37.01953 l -15.6875,11.07422 c -2.47265,1.7461 -4.5625,3.97657 -6.15234,6.55078 H 90.691406 c -4.417968,0 -8,3.58204 -8,8 v 56 h -16 z m 32,121.23047 v -48 h 5.718754 c 0.58203,2.85938 1.71484,5.57422 3.33593,8 4.99219,7.55078 14.08594,11.28906 22.94532,9.44141 v 30.55859 z m 48.000004,0 v -39.67969 l 8,-5.86328 v 45.54297 z m 56,64 v -48 h 32 v 48 z m 112,0 h -64 v -56 c 0,-4.41797 -3.58203,-8 -8,-8 h -48 c -4.41797,0 -8,3.58203 -8,8 v 56 h -16 V 240.48801 l 72,-52.79687 72,52.79687 z m 16,-64 v -45.54297 l 8,5.86328 v 39.67969 z m 88,0 h -64 v -30.54297 c 2.6289,0.58203 5.34765,0.63672 8,0.15235 v 6.39062 c 0,4.41797 3.58203,8 8,8 h 32 c 4.41797,0 8,-3.58203 8,-8 v -32 c 0,-4.41797 -3.58203,-8 -8,-8 h -24.59375 c -1.58594,-2.58203 -3.6836,-4.8125 -6.16016,-6.55859 l -15.64844,-11.03906 c 15.60938,-4.95704 24.94141,-20.91797 21.60157,-36.95313 -3.33985,-16.03515 -18.26563,-26.94139 -34.5586,-25.25389 -16.28906,1.6875 -28.66016,15.42577 -28.64062,31.80467 0,0.375 0.0937,0.72656 0.10937,1.10547 l -27.60547,-19.5039 59.4961,-43.67966 72,52.84762 z m 49.69531,-112.88672 c -0.98828,1.45313 -2.52344,2.44141 -4.25781,2.73438 -1.67969,0.30469 -3.41407,-0.0898 -4.79688,-1.09375 L 351.41016,107.32009 c -2.81641,-2.06641 -6.65235,-2.06641 -9.47266,0 l -68.53516,50.3359 -10.18359,-7.19921 83.47266,-58.894501 120,84.710891 c 2.8125,1.92969 3.57031,5.7539 1.70312,8.60937 z m 0,0"
     id="path54"
     inkscape:connector-curvature="0" />
  <text
     xml:space="preserve"
     style="font-style:normal;font-variant:normal;font-weight:normal;font-stretch:normal;font-size:4.00338888px;line-height:1.25;font-family:Arial;-inkscape-font-specification:'Arial, Normal';font-variant-ligatures:normal;font-variant-caps:normal;font-variant-numeric:normal;font-feature-settings:normal;text-align:center;letter-spacing:0px;word-spacing:0px;writing-mode:lr-tb;text-anchor:middle;fill:#000000;fill-opacity:1;stroke:none;stroke-width:0.75063539"
     x="31.9967"
     y="-26.569242"
     id="text4550"><tspan
       sodipodi:role="line"
       id="tspan4548"
       x="31.9967"
       y="-22.963173"
       style="stroke-width:0.75063539"></tspan></text>
  <text
     xml:space="preserve"
     style="font-style:normal;font-variant:normal;font-weight:normal;font-stretch:normal;font-size:144.12199402px;line-height:1.25;font-family:Arial;-inkscape-font-specification:'Arial, Normal';font-variant-ligatures:normal;font-variant-caps:normal;font-variant-numeric:normal;font-feature-settings:normal;text-align:center;letter-spacing:0px;word-spacing:0px;writing-mode:lr-tb;text-anchor:middle;fill:#00aa88;fill-opacity:1;stroke:none;stroke-width:0.75063539"
     x="65.7276"
     y="36.694992"
     id="text4554"><tspan
       sodipodi:role="line"
       id="tspan4552"
       x="65.7276"
       y="36.694992"
       style="font-size:160.13554382px;fill:#00aa88;stroke-width:0.75063539">D</tspan></text>
</svg>
