<?xml version="1.0" encoding="UTF-8" standalone="no"?>
<svg
   xmlns:dc="http://purl.org/dc/elements/1.1/"
   xmlns:cc="http://creativecommons.org/ns#"
   xmlns:rdf="http://www.w3.org/1999/02/22-rdf-syntax-ns#"
   xmlns:svg="http://www.w3.org/2000/svg"
   xmlns="http://www.w3.org/2000/svg"
   xmlns:sodipodi="http://sodipodi.sourceforge.net/DTD/sodipodi-0.dtd"
   xmlns:inkscape="http://www.inkscape.org/namespaces/inkscape"
   height="511pt"
   viewBox="-70 1 511 511.999"
   width="511pt"
   version="1.1"
   id="svg16"
   sodipodi:docname="_v.svg"
   inkscape:export-filename="D:\vigneonline\src\assets\_v.png"
   inkscape:export-xdpi="12.681018"
   inkscape:export-ydpi="12.681018"
   inkscape:version="0.92.1 r15371">
  <metadata
     id="metadata22">
    <rdf:RDF>
      <cc:Work
         rdf:about="">
        <dc:format>image/svg+xml</dc:format>
        <dc:type
           rdf:resource="http://purl.org/dc/dcmitype/StillImage" />
        <dc:title></dc:title>
      </cc:Work>
    </rdf:RDF>
  </metadata>
  <defs
     id="defs20" />
  <sodipodi:namedview
     pagecolor="#ffffff"
     bordercolor="#666666"
     borderopacity="1"
     objecttolerance="10"
     gridtolerance="10"
     guidetolerance="10"
     inkscape:pageopacity="0"
     inkscape:pageshadow="2"
     inkscape:window-width="816"
     inkscape:window-height="899"
     id="namedview18"
     showgrid="false"
     inkscape:zoom="0.2449274"
     inkscape:cx="308.03352"
     inkscape:cy="663.39932"
     inkscape:window-x="978"
     inkscape:window-y="7"
     inkscape:window-maximized="0"
     inkscape:current-layer="svg16" />
  <path
     d="m359.902344 454.355469-23.546875-284.398438c10.628906-.457031 19.144531-9.21875 19.144531-19.957031v-20.660156c8.609375-2.226563 15-10.042969 15-19.339844v-100c0-5.523438-4.476562-10-10-10h-50c-5.523438 0-10 4.476562-10 10v40h-30v-40c0-5.523438-4.476562-10-10-10h-50c-5.523438 0-10 4.476562-10 10v40h-30v-40c0-5.523438-4.476562-10-10-10h-50c-5.523438 0-10 4.476562-10 10v40h-30v-40c0-5.523438-4.476562-10-10-10h-50c-2.652344 0-5.195312 1.054688-7.070312 2.929688s-2.929688 4.417968-2.929688 7.070312v100c0 9.296875 6.386719 17.113281 15 19.339844v20.660156c0 10.738281 8.511719 19.5 19.140625 19.957031l-23.542969 284.398438c-6.300781 3.371093-10.597656 10.015625-10.597656 17.644531v30c0 5.523438 4.476562 10 10 10h350c5.523438 0 10-4.476562 10-10v-30c0-7.628906-4.300781-14.273438-10.597656-17.644531zm-209.402344-2.355469v-65c0-19.296875 15.699219-35 35-35 19.296875 0 35 15.703125 35 35v65zm90-55h10c5.523438 0 10-4.476562 10-10s-4.476562-10-10-10h-10.929688c-4.714843-25.566406-27.160156-45-54.070312-45-30.328125 0-55 24.671875-55 55v25h-10c-5.523438 0-10 4.476562-10 10s4.476562 10 10 10h10v20h-99.136719l20.03125-242h14.105469c5.523438 0 10-4.476562 10-10s-4.476562-10-10-10h-12.449219l1.65625-20h261.585938l1.65625 20h-12.449219c-5.523438 0-10 4.476562-10 10s4.476562 10 10 10h14.105469l16.722656 202h-16.160156c-5.523438 0-10 4.476562-10 10s4.476562 10 10 10h17.8125l1.65625 20h-99.136719zm-190-377v40c0 5.523438 4.476562 10 10 10h50c5.523438 0 10-4.476562 10-10v-40h30v40c0 5.523438 4.476562 10 10 10h50c5.523438 0 10-4.476562 10-10v-40h30v40c0 5.523438 4.476562 10 10 10h50c5.519531 0 10-4.476562 10-10v-40h30v90h-215c-5.523438 0-10 4.476562-10 10s4.476562 10 10 10h200v20h-300v-20h10c5.523438 0 10-4.476562 10-10s-4.476562-10-10-10h-25v-90zm-30 472v-20h.011719.007812 329.949219.019531.011719v20zm0 0"
     id="path2" />
  <path
     d="m185.5 214.335938c-13.035156 0-24.152344 8.359374-28.28125 20h-11.71875c-5.523438 0-10 4.476562-10 10 0 5.519531 4.476562 10 10 10h10v23.332031c0 5.523437 4.476562 10 10 10h40c5.523438 0 10-4.476563 10-10v-33.332031c0-16.542969-13.457031-30-30-30zm10 53.332031h-20v-23.332031c0-5.515626 4.484375-10 10-10 5.511719 0 10 4.484374 10 10zm0 0"
     id="path4" />
  <path
     d="m107.167969 316.652344h-20c-5.523438 0-10 4.476562-10 10 0 5.519531 4.476562 10 10 10h20c5.523437 0 10-4.480469 10-10 0-5.523438-4.476563-10-10-10zm0 0"
     id="path6" />
  <path
     d="m277.167969 267.664062h-20c-5.519531 0-10 4.480469-10 10 0 5.523438 4.480469 10 10 10h20c5.523437 0 10-4.476562 10-10 0-5.519531-4.476563-10-10-10zm0 0"
     id="path8" />
  <path
     d="m170.5 412h-.007812c-5.519532 0-9.996094 4.476562-9.996094 10s4.480468 10 10.003906 10 10-4.476562 10-10-4.476562-10-10-10zm0 0"
     id="path10" />
  <path
     d="m275.171875 412h-.007813c-5.523437 0-9.996093 4.476562-9.996093 10s4.480469 10 10.003906 10 10-4.476562 10-10-4.476563-10-10-10zm0 0"
     id="path12" />
  <path
     d="m90.503906 130c5.523438 0 10-4.476562 10-10s-4.476562-10-10-10h-.007812c-5.523438 0-9.996094 4.476562-9.996094 10s4.480469 10 10.003906 10zm0 0"
     id="path14" />
  <path
     style="opacity:1;fill:#99c192;fill-opacity:1;stroke:none;stroke-width:2.04463601;stroke-linejoin:round;stroke-miterlimit:4;stroke-dasharray:none;stroke-dashoffset:0;stroke-opacity:1"
     d="m 136.81212,597.38194 c 0.009,-3.80551 24.49508,-298.72565 25.59341,-308.25461 l 1.23531,-10.71746 h 11.78524 c 13.64786,0 19.22277,-4.18015 19.22277,-14.4135 0,-8.97543 -4.84733,-12.64746 -18.152,-13.75078 l -11.55453,-0.95819 1.22132,-7.38405 c 0.67173,-4.06122 1.23143,-9.45098 1.24379,-11.97723 l 0.0225,-4.5932 h 173.52081 173.52081 v 9.01943 c 0,4.96069 0.51227,10.35438 1.13837,11.98598 0.89053,2.32068 -1.4056,3.17751 -10.54624,3.93553 -12.86378,1.06676 -19.17203,6.03286 -19.17203,15.09293 0,8.76219 6.70017,13.04308 20.41421,13.04308 6.73669,0 12.24853,0.89515 12.24853,1.98921 0,3.44855 20.22589,249.75135 21.16852,257.78165 l 0.89861,7.65533 h -13.075 c -15.15294,0 -21.24066,4.0956 -21.24066,14.28995 0,10.46824 6.00553,14.28995 22.45563,14.28995 h 14.28995 v 5.86908 c 0,3.228 0.57415,8.73984 1.27589,12.24853 l 1.27589,6.37944 H 480.02256 414.4419 v -35.72487 -35.72487 h 9.1864 c 10.97474,0 17.35208,-5.19746 17.35208,-14.14179 0,-8.27 -8.21233,-14.43811 -19.22313,-14.43811 -8.28071,0 -8.52509,-0.2021 -11.20056,-9.26332 -5.93002,-20.08379 -25.69325,-39.27731 -47.60731,-46.23499 -34.50614,-10.95565 -71.61664,4.72171 -88.66657,37.45725 -5.20321,9.99006 -5.7395,13.14524 -6.44946,37.94492 l -0.77436,27.04883 h -8.53188 c -12.14425,0 -17.60602,4.43305 -17.60602,14.28995 0,9.90177 5.46799,14.28995 17.80631,14.28995 h 8.73217 v 12.24852 12.24853 h -65.32548 c -35.92901,0 -65.32389,-0.68898 -65.32194,-1.53107 z m 332.74813,-27.04883 c 12.37148,-12.37148 -4.73884,-32.19619 -18.05958,-20.92457 -7.02249,5.94221 -7.663,13.76037 -1.62223,19.80114 6.2486,6.2486 14.10801,6.69723 19.68181,1.12343 z M 246.11741,442.83707 c 6.12147,-6.12147 6.33602,-11.12663 0.77975,-18.19027 -4.03627,-5.1313 -5.11678,-5.37886 -23.47634,-5.37886 -21.54455,0 -27.43997,2.96703 -27.37976,13.77959 0.0637,11.43741 6.21062,14.65788 28.13107,14.73823 15.3015,0.0561 17.41771,-0.42111 21.94528,-4.94869 z M 376.76836,377.5116 c 4.84089,-4.84088 5.00926,-5.96561 4.96594,-33.1731 -0.0512,-32.19229 -2.33612,-40.01239 -14.91856,-51.05993 -18.04998,-15.8481 -46.69973,-12.195 -59.81748,7.62726 -4.86132,7.34595 -6.20587,8.12536 -14.01693,8.12536 -11.19131,0 -19.39753,6.10811 -19.39753,14.43811 0,8.94432 6.37734,14.14179 17.35209,14.14179 h 9.18639 v 18.29327 c 0,26.56998 0.0727,26.618 40.28545,26.618 30.56316,0 31.47563,-0.12576 36.36063,-5.01076 z m 94.94738,1.24603 c 6.32098,-5.1184 6.32098,-15.93205 0,-21.05045 -6.22435,-5.04019 -37.62284,-5.45359 -44.5711,-0.58683 -5.93125,4.15439 -6.17508,15.59833 -0.45424,21.31916 5.79972,5.79972 37.97511,6.02705 45.02534,0.31812 z"
     id="path4499"
     inkscape:connector-curvature="0"
     transform="matrix(0.75146627,0,0,0.75146627,-70.4995,1)" />
  <path
     style="opacity:1;fill:#99c192;fill-opacity:1;stroke:none;stroke-width:2.04463601;stroke-linejoin:round;stroke-miterlimit:4;stroke-dasharray:none;stroke-dashoffset:0;stroke-opacity:1"
     d="m 142.93284,184.50449 v -12.24853 h 8.87 c 10.63701,0 16.30753,-5.08873 16.30753,-14.63441 0,-10.80376 -6.18299,-13.94548 -27.4451,-13.94548 H 122.51863 V 84.47485 25.273633 h 18.22219 18.22219 l 0.66096,29.785659 c 0.88481,39.873448 -2.07365,37.581243 48.50466,37.581243 49.66218,0 47.08238,2.104513 47.08238,-38.408221 V 25.273633 h 19.39351 19.3935 v 30.505562 c 0,39.524421 -3.42496,36.86134 47.40692,36.86134 49.57057,0 46.49846,2.495192 46.49846,-37.766294 V 25.273633 h 19.3935 19.3935 v 29.600608 c 0,40.294767 -3.1435,37.766294 46.95269,37.766294 50.09619,0 46.95269,2.528473 46.95269,-37.766294 V 25.273633 h 19.3935 19.3935 V 84.47485 143.67607 H 414.34909 269.31538 l -5.01076,5.01076 c -6.12147,6.12147 -6.33603,11.12662 -0.77976,18.19028 l 4.23101,5.37885 h 135.60635 135.60635 v 12.24853 12.24853 H 340.95071 142.93284 Z m 81.01493,-16.68722 c 2.59862,-2.44128 4.72477,-6.61691 4.72477,-9.27919 0,-5.81244 -8.4771,-14.86201 -13.92186,-14.86201 -6.71016,0 -14.65804,7.82863 -14.65804,14.43811 0,12.5846 14.5069,18.48529 23.85513,9.70309 z"
     id="path4501"
     inkscape:connector-curvature="0"
     transform="matrix(0.75146627,0,0,0.75146627,-70.4995,1)" />
  <path
     style="opacity:1;fill:#99c192;fill-opacity:1;stroke:none;stroke-width:2.04463601;stroke-linejoin:round;stroke-miterlimit:4;stroke-dasharray:none;stroke-dashoffset:0;stroke-opacity:1"
     d="m 122.51863,639.74144 v -12.24853 h 218.43208 218.43207 v 12.24853 12.24852 H 340.95071 122.51863 Z"
     id="path4503"
     inkscape:connector-curvature="0"
     transform="matrix(0.75146627,0,0,0.75146627,-70.4995,1)" />
</svg>
