<?xml version="1.0" encoding="iso-8859-1"?>
<!-- Generator: Adobe Illustrator 19.0.0, SVG Export Plug-In . SVG Version: 6.00 Build 0)  -->
<svg version="1.1" id="Capa_1" xmlns="http://www.w3.org/2000/svg" xmlns:xlink="http://www.w3.org/1999/xlink" x="0px" y="0px"
	 viewBox="0 0 512 512" style="enable-background:new 0 0 512 512;" xml:space="preserve">
<g>
	<circle style="fill:#E83D3D;" cx="152.075" cy="273.336" r="52.052"/>
	<circle style="fill:#E83D3D;" cx="255.831" cy="273.336" r="52.052"/>
	<circle style="fill:#E83D3D;" cx="359.925" cy="273.336" r="52.052"/>
	<circle style="fill:#E83D3D;" cx="307.873" cy="362.801" r="52.052"/>
	<circle style="fill:#E83D3D;" cx="255.831" cy="452.965" r="52.052"/>
	<circle style="fill:#E83D3D;" cx="203.778" cy="362.801" r="52.052"/>
	<circle style="fill:#E83D3D;" cx="307.873" cy="183.313" r="52.052"/>
	<circle style="fill:#E83D3D;" cx="203.778" cy="183.313" r="52.052"/>
</g>
<g>
	<path style="fill:#BC3535;" d="M129.016,256.761c0-13.245,4.957-25.329,13.106-34.516c-23.983,4.645-42.096,25.749-42.096,51.086
		c0,47.735,59.319,70.225,90.991,34.517C158.942,314.058,129.016,289.579,129.016,256.761z"/>
	<path style="fill:#BC3535;" d="M232.772,256.761c0-13.245,4.957-25.329,13.106-34.516c-23.982,4.645-42.096,25.749-42.096,51.086
		c0,47.739,59.32,70.224,90.992,34.516C291.551,308.473,232.772,289.397,232.772,256.761z"/>
	<path style="fill:#BC3535;" d="M349.974,222.244c-23.982,4.646-42.097,25.749-42.097,51.087c0,47.739,59.32,70.224,90.992,34.516
		C349.407,317.435,317.548,258.805,349.974,222.244z"/>
	<path style="fill:#BC3535;" d="M336.868,398.275c-28.746,0-52.048-23.302-52.048-52.048c0-13.246,4.957-25.327,13.105-34.514
		c-23.982,4.645-42.095,25.747-42.095,51.085c0,47.739,59.319,70.224,90.992,34.516
		C343.598,397.938,340.273,398.275,336.868,398.275z"/>
	<path style="fill:#BC3535;" d="M232.772,436.397c0-13.245,4.957-25.327,13.105-34.514c-23.982,4.645-42.095,25.747-42.095,51.084
		c0,47.739,59.32,70.224,90.992,34.516C262.523,493.736,232.772,469.033,232.772,436.397z"/>
	<path style="fill:#BC3535;" d="M232.772,398.275c-28.745,0-52.047-23.302-52.047-52.048c0-13.246,4.957-25.327,13.105-34.514
		c-23.982,4.645-42.096,25.747-42.096,51.085c0,47.739,59.319,70.224,90.992,34.516
		C239.503,397.938,236.177,398.275,232.772,398.275z"/>
	<path style="fill:#BC3535;" d="M284.82,166.738c0-13.246,4.957-25.329,13.105-34.516c-23.982,4.645-42.095,25.745-42.095,51.086
		c0,28.748,23.304,52.048,52.048,52.048c15.499,0,29.408-6.783,38.943-17.533C314.575,224.076,284.82,199.379,284.82,166.738z"/>
	<path style="fill:#BC3535;" d="M232.772,218.787c-28.745,0-52.047-23.302-52.047-52.048c0-13.246,4.957-25.329,13.105-34.516
		c-23.982,4.645-42.095,25.745-42.095,51.086c0,47.739,59.319,70.224,90.992,34.516C239.503,218.45,236.177,218.787,232.772,218.787
		z"/>
</g>
<path style="fill:#9AD14B;" d="M256.927,37.025C226.954,2.391,164.783,16.06,152.382,60.372c-0.451,1.613-0.064,3.344,1.032,4.61
	c29.837,34.477,92.088,21.177,104.545-23.348C258.409,40.022,258.022,38.291,256.927,37.025z"/>
<path style="fill:#8DC133;" d="M256.927,37.025c-2.929-3.385-6.336-6.376-10.081-8.955c-18.263,27.273-58.695,36.241-87.205,16.6
	c-3.213,4.799-5.683,10.073-7.259,15.702c-0.451,1.613-0.064,3.344,1.032,4.61c29.837,34.477,92.088,21.177,104.545-23.348
	C258.409,40.022,258.022,38.291,256.927,37.025z"/>
<path d="M419.458,272.833c0-33.012-27.076-60.045-60.488-59.509c11.087-18.496,10.935-40.831,1.391-58.623
	c-1.953-3.642-6.49-5.011-10.133-3.058c-3.642,1.954-5.012,6.492-3.058,10.133c3.448,6.428,5.27,13.701,5.27,21.033
	c0,33.269-35.543,55.078-65.235,39.46c-1.064-0.663-2.147-1.298-3.254-1.894c-21.809-13.939-20.664-37.667-20.637-37.567
	c0,0,0-0.013,0-0.019c0.014-32.273,33.313-53.668,62.538-40.766c3.782,1.67,8.201-0.044,9.871-3.824
	c1.67-3.781-0.043-8.201-3.824-9.871c-23.377-10.32-51.234-4.663-68.72,15.223c3.113-36.641,14.796-72.728,38.604-100.382
	c0.27,13.682,2.472,34.592,11.666,54.872c1.252,2.763,3.974,4.396,6.822,4.396c5.397,0,9.066-5.604,6.812-10.577
	c-13.802-30.441-9.69-62.033-9.894-63.968c6.068-5.135,12.62-9.798,19.661-13.968c3.556-2.107,4.731-6.697,2.626-10.254
	s-6.697-4.729-10.254-2.626c-39.772,23.556-66.36,62.69-76.889,113.169c-2.161,10.36-3.44,20.165-4.161,28.979
	c-10.91-12.213-26.764-19.919-44.39-19.919c-46.4,0-74.601,50.817-51.097,90.039c-33.125-0.356-60.143,26.511-60.143,59.518
	c0,32.827,26.707,59.533,59.533,59.533c0.096,0,0.19-0.007,0.284-0.007c-5.145,8.803-8.109,19.029-8.109,29.939
	c0,32.926,26.981,60.071,60.574,59.507C181.062,461.174,209.495,512,255.83,512c46.351,0,74.755-50.843,51.005-90.197
	c13.94,0.234,26.638-4.178,37.056-12.105c3.29-2.503,3.928-7.198,1.425-10.488c-2.503-3.29-7.2-3.928-10.488-1.425
	c-7.804,5.937-17.124,9.075-26.951,9.075c-42.654,0-60.853-54.385-26.827-80.119c3.21-1.508,6.261-3.298,9.129-5.333
	c11.281-4.901,24.115-4.901,35.396,0c2.868,2.034,5.918,3.824,9.128,5.332c14.562,11.014,20.837,29.503,16.276,46.888
	c-1.049,3.999,1.343,8.089,5.342,9.138c3.999,1.047,8.089-1.343,9.138-5.342c3.867-14.744,2.074-30.989-6.164-45.077
	C392.356,332.732,419.458,305.901,419.458,272.833z M404.489,272.833c0,32.043-32.984,53.611-62.261,40.89
	c-2.868-2.034-5.918-3.824-9.128-5.332c-24.855-18.798-23.305-56.377,2.9-73.126c2.961-1.594,10.884-6.997,23.924-6.997
	C384.499,228.269,404.489,248.26,404.489,272.833z M282.656,308.39c-3.211,1.509-6.262,3.299-9.131,5.333
	c-11.279,4.9-24.112,4.9-35.392,0c-2.868-2.034-5.919-3.824-9.13-5.333c-24.786-18.747-23.292-56.383,2.899-73.124
	c1.108-0.597,2.191-1.231,3.255-1.895c29.543-15.539,65.234,6.054,65.234,39.461C300.394,287.34,293.422,300.248,282.656,308.39z
	 M159.219,182.81c0-24.572,19.991-44.564,44.563-44.564c21.996,0,40.308,16.022,43.909,37.004c0.229,4.017,0.512,6.768,0.645,7.93
	c-0.266,32.46-34.334,53.839-63.637,39.892c-1.945-1.279-3.968-2.446-6.062-3.495C166.922,211.539,159.219,198.059,159.219,182.81z
	 M107.511,272.833c0-32.611,34.144-54.304,63.646-40.262c1.944,1.278,3.967,2.445,6.059,3.494
	c24.918,17.095,26.016,53.413,2.143,71.964c-3.687,1.667-7.175,3.693-10.419,6.043c-5.206,2.138-10.898,3.325-16.866,3.325
	C127.501,317.396,107.511,297.405,107.511,272.833z M176.494,327.104c3.688-1.667,7.177-3.694,10.42-6.044
	c11.066-4.543,23.546-4.438,34.564,0.349c2.868,2.034,5.919,3.824,9.13,5.333c34.034,25.741,15.812,80.119-26.828,80.119
	C161.815,406.861,142.82,353.273,176.494,327.104z M255.831,497.033c-24.573,0-44.564-19.991-44.564-44.564
	c0-24.571,19.991-44.562,44.564-44.562c24.572,0,44.563,19.991,44.563,44.562C300.394,477.042,280.403,497.033,255.831,497.033z"/>
<path d="M166.425,83.963c3.674,1.892,8.189,0.449,10.081-3.225c1.893-3.675,0.449-8.188-3.225-10.081
	c-5.138-2.648-9.601-6.024-13.306-10.061c11.549-36.983,64.17-48.791,90.396-20.185c-6.013,19.256-24.72,33.88-47.254,35.899
	c-4.117,0.367-7.156,4.004-6.788,8.121c0.367,4.12,4.012,7.159,8.121,6.788c30.164-2.688,55.264-23.582,61.459-50.998
	c0.494-2.186-0.018-4.48-1.395-6.249C231.066-8.979,156.453,7.613,144.434,60.785c-0.494,2.186,0.018,4.48,1.395,6.249
	C151.283,74.038,158.212,79.733,166.425,83.963z"/>
<g>
</g>
<g>
</g>
<g>
</g>
<g>
</g>
<g>
</g>
<g>
</g>
<g>
</g>
<g>
</g>
<g>
</g>
<g>
</g>
<g>
</g>
<g>
</g>
<g>
</g>
<g>
</g>
<g>
</g>
</svg>
